<?xml version="1.0"?>
<svg version="1.1" xmlns="http://www.w3.org/2000/svg" width="400px" height="200px" style=""><path fill="#f0c9d5" d="M144.87,122.54q-4.2,0-7.07-1.925t-2.87-4.865q0-3.71,4.83-7.42q0.84-0.63,1.26-0.63t0.42,0.28q0,0.7-1.12,1.12q-3.92,3.15-3.92,6.37q0,2.31,2.1,3.885t5.25,1.575q6.86,0,12.95-6.58q3.15-3.43,3.15-7.91t-3.36-6.65q-2.8-1.96-7.56-1.96q-6.86,0-13.79,3.43q-8.54,4.13-15.435,12.845t-6.895,16.765q0,6.37,4.34,9.835t10.78,3.465q7.35,0,14.42-3.57q5.39-2.8,9.31-7.14q1.12-1.26,1.75-1.26q0.42,0,0.42,0.735t-0.77,1.505q-3.71,3.92-10.71,7.56q-8.61,4.55-17.325,4.55t-12.985-5.74q-2.87-3.78-2.87-9.03q0-2.31,0.56-4.97q1.89-8.96,9.94-17.43q5.81-6.09,13.79-9.485t15.12-3.395q3.78,0,6.58,0.91q7.63,2.38,7.63,9.59q0,4.41-2.59,7.63q-6.44,7.91-15.33,7.91z M197.8719,124.43q6.79,0.21,7.175,0.21l0.455,0q1.68-0.14,1.68,0.49q0,0.98-2.73,0.98l-5.95-0.14q-1.82,0.14-2.17,0.35q-2.94,3.64-7.91,10.535t-4.97,8.225q0,0.56,1.26-0.28q0.77,0,0.77,0.21q0,0.35-1.54,1.05l-1.96,1.05q-1.33,1.12-3.045,1.12t-1.575-0.84q0.07-1.68,4.97-8.505t10.15-12.985q-5.04,0.91-7.7,0.91q-0.28-0.07-0.28-0.455t0.84-1.085t1.785-0.7t3.045-0.07l3.57,0q2.38-3.22,10.57-14.84q3.36-4.83,3.36-7.98q0-4.9-7.28-4.9q-5.67,0-13.335,3.15t-14.105,8.61q-4.55,3.78-7.21,8.19t-2.66,7.84q0,5.53,6.58,5.53q0.56,0,1.19-0.07q4.27-0.35,8.085-4.865t3.815-7.595q0-0.28-0.07-0.63q1.82,0.35,1.82,2.17q0,3.01-3.92,7.07q-5.32,5.53-12.32,5.53q-3.85,0-6.02-2.03t-2.17-5.53q0-8.26,10.08-16.66q7.28-5.95,15.47-8.995t14.245-3.045t9.03,1.75t2.975,4.865t-2.73,7.035q-1.61,2.59-11.27,15.33z M252.5538,140.11q0,4.69,4.69,4.69q6.3,0,15.19-9.1q8.05-8.12,12.285-16.555t4.235-12.845q0-0.7-0.14-1.4q-1.54,0-3.15-1.61l0,0.07q-1.05-0.84-1.05-1.715t0.7-1.435t1.82-0.56t1.575,0.875t1.155,1.575t0.63,0.98q0.42,0.63,1.295,0.63t1.995-0.84t1.785-0.84t0.665,0.42q0,0.77-1.33,1.47q-0.7,0.56-1.68,0.63l-2.24,0q0.84,2.87,0.84,4.13q0,5.6-5.355,14.56t-13.755,15.89q-8.47,7.14-15.365,7.14t-6.895-6.72q0-5.32,4.48-15.19l5.04-10.99l-6.86,5.32q-3.22,2.66-6.545,5.845t-11.585,13.125l-8.12,9.94q-1.96,2.24-3.5,2.24q-1.19,0-1.19-1.54t1.26-3.99l13.51-19.46q12.25-17.99,12.25-22.82q0-2.66-4.9-2.66q-5.95,0-16.59,7.28q-5.74,3.92-10.08,9.835t-4.34,9.8t5.18,3.885q4.83,0,9.94-4.48q1.82-1.54,2.1-1.54t0.21,0.49q-0.77,2.66-5.705,5.075t-8.715,2.415q-0.98,0-1.33-0.07l-0.07,0q-5.6-1.19-5.6-5.53t4.83-10.43q8.54-10.78,21.98-16.03q6.93-2.66,11.41-2.66q5.53,0,5.53,3.64q0,7.56-19.04,32.83q-6.37,8.47-6.44,8.47q0.21,0,7.315-7.91t13.475-13.51q2.45-2.17,8.47-7.98q3.15-2.94,6.79-5.32q0.91-0.56,2.625-0.56t2.345,0.98q-6.44,7.98-11.235,17.885t-4.795,14.175z M293.2238,104.55l0.07,0l-0.07,0z"/><path fill="#349eeb" d="M65.05,103l-0.575-2.4s-1.175-0.4-2.8-0.4c-2.625,0-4.125,1.95-4.125,6.125c0,4.05,1.625,5.75,4.25,5.75c2.5,0,4.75-1.75,4.75-1.75l1.375,2.25s-2.625,2.725-6.55,2.725c-5.075,0-8-3.05-8-8.85c0-5.875,3.3-9.375,8.425-9.375c3.025,0,5.825,1.175,5.825,1.175l-0.125,4.75l-2.45,0z M76.68775,112.375l2.25,0.625l0,2l-8.025,0l0-2l2-0.625l0-14.05l-2-0.5l0-2l5.775-0.2l0,16.75z M90.2005,115l-0.45-1.625s-1.925,1.875-4.05,1.875c-2.425,0-3.9-1.425-3.9-3.925c0-2.95,2.225-4.125,6.025-4.125l1.75,0l0-1.375c0-1.275-0.675-1.825-1.925-1.825c-1.275,0-2.2,0.375-2.2,0.375l-0.375,1.575l-2.25,0l-0.175-3.7s3.025-1,5.425-1c3.8,0,5.25,1.325,5.25,4.95l0,6.175l1.875,0.45l0,2z M89.5755,109.325l-1.425,0c-1.95,0-2.725,0.5-2.725,1.625c0,0.95,0.525,1.5,1.475,1.5c1.325,0,2.675-1.45,2.675-1.45l0-1.675z M100.76325,110.625l0.2,1.625s0.875,0.25,2.1,0.25c1.375,0,2.05-0.425,2.05-1.225c0-2.05-6.675-1.3-6.675-5.75c0-3.125,2.5-4.275,5.15-4.275c2.25,0,4.65,0.75,4.65,0.75l-0.1,3.75l-2.125,0l-0.375-1.5s-0.725-0.25-1.725-0.25c-1.075,0-1.725,0.45-1.725,1.275c0,2.025,6.675,1.15,6.675,5.475c0,2.875-2.325,4.5-5.75,4.5c-2.375,0-4.6-0.55-4.6-0.55l0-4.075l2.25,0z M114.676,110.625l0.2,1.625s0.875,0.25,2.1,0.25c1.375,0,2.05-0.425,2.05-1.225c0-2.05-6.675-1.3-6.675-5.75c0-3.125,2.5-4.275,5.15-4.275c2.25,0,4.65,0.75,4.65,0.75l-0.1,3.75l-2.125,0l-0.375-1.5s-0.725-0.25-1.725-0.25c-1.075,0-1.725,0.45-1.725,1.275c0,2.025,6.675,1.15,6.675,5.475c0,2.875-2.325,4.5-5.75,4.5c-2.375,0-4.6-0.55-4.6-0.55l0-4.075l2.25,0z M127.81375,97.375c0-1.425,1.025-2.25,2.15-2.25c1.3,0,2.1,0.675,2.1,2.25c0,1.475-1.075,2.275-2.1,2.275c-1.35,0-2.15-0.8-2.15-2.275z M132.01375,112.375l1.75,0.625l0,2l-7.5,0l0-2l2-0.625l0-8.125l-2-0.625l0-2l5.75-0.125l0,10.875z M147.7515,110.925l1.25,2.2c-0.625,0.55-2.575,2.125-5.375,2.125c-4.125,0-6.5-2.55-6.5-6.8c0-4.45,2.5-7.2,6.875-7.2c2.15,0,4.375,0.875,4.375,0.875l-0.125,4.1l-2.25,0l-0.35-1.775s-0.725-0.2-1.725-0.2c-1.8,0-2.925,1.2-2.925,3.7c0,2.725,1.05,4.3,3.125,4.3c1.75,0,2.85-0.875,3.625-1.325z M159.852,115l0-2.125l1.875-0.75l0-11.75l-1.875-0.75l0-2.125l5.75-0.125l7,0l0,4.75l-2.325,0l-0.625-1.75l-4.05,0l0,4.375l5.175,0l0,2.75l-5.175,0l0,4.625l2.3,0.75l0,2.125l-8.05,0z M184.36475,115l-0.45-1.625s-1.925,1.875-4.05,1.875c-2.425,0-3.9-1.425-3.9-3.925c0-2.95,2.225-4.125,6.025-4.125l1.75,0l0-1.375c0-1.275-0.675-1.825-1.925-1.825c-1.275,0-2.2,0.375-2.2,0.375l-0.375,1.575l-2.25,0l-0.175-3.7s3.025-1,5.425-1c3.8,0,5.25,1.325,5.25,4.95l0,6.175l1.875,0.45l0,2z M183.73975,109.325l-1.425,0c-1.95,0-2.725,0.5-2.725,1.625c0,0.95,0.525,1.5,1.475,1.5c1.325,0,2.675-1.45,2.675-1.45l0-1.675z M194.9275,110.625l0.2,1.625s0.875,0.25,2.1,0.25c1.375,0,2.05-0.425,2.05-1.225c0-2.05-6.675-1.3-6.675-5.75c0-3.125,2.5-4.275,5.15-4.275c2.25,0,4.65,0.75,4.65,0.75l-0.1,3.75l-2.125,0l-0.375-1.5s-0.725-0.25-1.725-0.25c-1.075,0-1.725,0.45-1.725,1.275c0,2.025,6.675,1.15,6.675,5.475c0,2.875-2.325,4.5-5.75,4.5c-2.375,0-4.6-0.55-4.6-0.55l0-4.075l2.25,0z M211.89025,95.625l0,7.325c0.725-0.6,2.35-1.7,4.2-1.7c2.55,0,3.925,1.7,3.925,4.5l0,6.625l1.75,0.625l0,2l-6.8,0l0-2l1.3-0.6l0-6.05c0-1.25-0.5-2-1.65-2c-1.4,0-2.725,1.325-2.725,1.325l0,6.7l1.325,0.625l0,2l-7.075,0l0-2l2-0.625l0-14.05l-2-0.5l0-2z M226.553,97.375c0-1.425,1.025-2.25,2.15-2.25c1.3,0,2.1,0.675,2.1,2.25c0,1.475-1.075,2.275-2.1,2.275c-1.35,0-2.15-0.8-2.15-2.275z M230.753,112.375l1.75,0.625l0,2l-7.5,0l0-2l2-0.625l0-8.125l-2-0.625l0-2l5.75-0.125l0,10.875z M242.61575,101.25c4.05,0,6.3,2.45,6.3,6.75c0,4.5-2.625,7.25-6.675,7.25c-4.075,0-6.375-2.125-6.375-6.875c0-4.5,2.675-7.125,6.75-7.125z M242.49075,104.25c-1.825,0-2.75,1-2.75,4c0,2.75,0.8,4,2.625,4c1.8,0,2.675-1.125,2.675-4.125c0-2.55-0.75-3.875-2.55-3.875z M257.7035,101.5l0.175,1.725s2.375-1.925,4.6-1.925c2.425,0,3.8,1.725,3.8,4.45l0,6.625l1.75,0.625l0,2l-6.875,0l0-2l1.375-0.625l0-5.95c0-1.15-0.65-2-1.7-2c-1.55,0-2.675,1.425-2.675,1.425l0,6.525l1.375,0.625l0,2l-7.125,0l0-2l2-0.625l0-8.125l-2-0.625l0-2z M278.129,99.625l0-2.125l7.425-0.125l0,2.25l-1.825,0.75l2.15,9l3.5-11.8l3.375-0.2l3.35,11.975l2.4-8.975l-1.875-0.75l0-2.125l7.125-0.125l0,2.25l-1.8,0.75l-4.275,14.625l-3.55,0l-3.275-11.875l-0.6,2.375l-2.875,9.5l-3.45,0l-4.05-14.65z M318.69175,109.075l-8.3,0c0.15,2,1.3,3.175,3.025,3.175c2.075,0,4.2-1.175,4.2-1.175l1.075,2.075s-2.5,2.1-5.7,2.1c-4.3,0-6.5-2.5-6.5-6.75c0-4.375,2.475-7.25,6.675-7.25c3.725,0,5.675,2.3,5.675,5.875c0,0.95-0.15,1.875-0.15,1.95z M310.44175,106.75l4.525,0c0-1.425-0.6-2.5-2.05-2.5c-1.4,0-2.275,1.025-2.475,2.5z M330.8545,115l-0.45-1.625s-1.925,1.875-4.05,1.875c-2.425,0-3.9-1.425-3.9-3.925c0-2.95,2.225-4.125,6.025-4.125l1.75,0l0-1.375c0-1.275-0.675-1.825-1.925-1.825c-1.275,0-2.2,0.375-2.2,0.375l-0.375,1.575l-2.25,0l-0.175-3.7s3.025-1,5.425-1c3.8,0,5.25,1.325,5.25,4.95l0,6.175l1.875,0.45l0,2z M330.2295,109.325l-1.425,0c-1.95,0-2.725,0.5-2.725,1.625c0,0.95,0.525,1.5,1.475,1.5c1.325,0,2.675-1.45,2.675-1.45l0-1.675z M344.34225,101.5l0.225,1.725s1.8-1.975,3.475-1.975c1.375,0,2.325,0.45,2.325,0.45l-0.2,4.8l-2.25,0l-0.375-2.125c-1.45,0-2.7,1.4-2.7,1.4l0,6.6l2.5,0.625l0,2l-8.25,0l0-2l2-0.625l0-8.125l-2-0.625l0-2z M355.43,110.625l0.2,1.625s0.875,0.25,2.1,0.25c1.375,0,2.05-0.425,2.05-1.225c0-2.05-6.675-1.3-6.675-5.75c0-3.125,2.5-4.275,5.15-4.275c2.25,0,4.65,0.75,4.65,0.75l-0.1,3.75l-2.125,0l-0.375-1.5s-0.725-0.25-1.725-0.25c-1.075,0-1.725,0.45-1.725,1.275c0,2.025,6.675,1.15,6.675,5.475c0,2.875-2.325,4.5-5.75,4.5c-2.375,0-4.6-0.55-4.6-0.55l0-4.075l2.25,0z"/></svg>
